<svg width="153" height="59" viewBox="0 0 153 59" fill="none" xmlns="http://www.w3.org/2000/svg">
<path d="M0.86 55.96C2.532 55.96 3.9 55.8333 4.964 55.58C6.07867 55.3267 6.99067 54.8707 7.7 54.212C8.46 53.5027 9.09333 52.5907 9.6 51.476C10.1067 50.3107 10.588 48.816 11.044 46.992L19.86 13.476C20.2147 12.1587 20.468 11.0187 20.62 10.056C20.8227 9.09333 20.924 8.25733 20.924 7.548C20.924 5.876 20.3413 4.78666 19.176 4.28C18.0107 3.77333 16.06 3.52 13.324 3.52L14.16 0.479997H55.656V15.832H52.768C52.1093 13.4 51.3747 11.424 50.564 9.904C49.7533 8.33333 48.816 7.11733 47.752 6.256C46.7387 5.344 45.5733 4.71066 44.256 4.356C42.9893 4.00133 41.5707 3.824 40 3.824H30.12L24.192 26.396H28.98C30.348 26.396 31.5133 26.2693 32.476 26.016C33.4387 25.7627 34.3 25.332 35.06 24.724C35.8707 24.0653 36.6053 23.1787 37.264 22.064C37.9733 20.9493 38.7333 19.5053 39.544 17.732H42.356L37.796 40.228H34.756C34.908 38.708 34.984 37.3907 34.984 36.276C34.984 33.996 34.5533 32.3493 33.692 31.336C32.8307 30.272 31.2347 29.74 28.904 29.74H23.204L18.872 46.08C18.416 47.752 18.188 49.1707 18.188 50.336C18.188 52.16 18.9987 53.528 20.62 54.44C22.2413 55.3013 25.028 55.732 28.98 55.732C31.868 55.732 34.376 55.504 36.504 55.048C38.6827 54.592 40.5573 53.8827 42.128 52.92C43.7493 51.9067 45.1427 50.5893 46.308 48.968C47.524 47.3467 48.664 45.3453 49.728 42.964H53.3L47.372 59H0.024L0.86 55.96ZM60.8178 40.152L62.5658 33.844H86.0498L84.3018 40.152H60.8178ZM110.663 26.548L126.395 15.3C129.587 13.02 131.918 11.0947 133.387 9.524C134.856 7.90266 135.591 6.61066 135.591 5.648C135.591 4.22933 133.894 3.52 130.499 3.52L131.259 0.479997H152.843L152.083 3.52C151.272 3.52 150.436 3.69733 149.575 4.052C148.714 4.40666 147.523 5.06533 146.003 6.028C144.534 6.99066 142.583 8.35866 140.151 10.132C137.719 11.9053 134.502 14.1853 130.499 16.972L118.795 25.18L133.691 44.788C135.718 47.4733 137.339 49.576 138.555 51.096C139.822 52.616 140.886 53.7307 141.747 54.44C142.659 55.1493 143.495 55.58 144.255 55.732C145.015 55.884 145.902 55.96 146.915 55.96L146.079 59H122.215L123.051 55.96C124.824 55.96 126.192 55.8333 127.155 55.58C128.168 55.276 128.675 54.6933 128.675 53.832C128.675 53.1227 128.32 52.1347 127.611 50.868C126.902 49.5507 125.812 47.8787 124.343 45.852L112.335 29.74L109.295 31.868L105.495 46.232C104.887 48.4613 104.583 50.2347 104.583 51.552C104.583 53.2747 105.166 54.44 106.331 55.048C107.547 55.656 109.548 55.96 112.335 55.96L111.347 59H87.1029L87.9389 55.96C89.3575 55.96 90.5482 55.8587 91.5109 55.656C92.4735 55.4027 93.3095 54.9467 94.0189 54.288C94.7789 53.6293 95.4122 52.7173 95.9189 51.552C96.4255 50.3867 96.9322 48.8667 97.4389 46.992L106.331 13.4C107.091 10.6133 107.471 8.536 107.471 7.168C107.471 5.59733 106.888 4.60933 105.723 4.204C104.608 3.748 102.683 3.52 99.9469 3.52L100.783 0.479997H125.483L124.647 3.52C122.975 3.52 121.582 3.69733 120.467 4.052C119.352 4.356 118.39 4.964 117.579 5.876C116.768 6.788 116.034 8.05466 115.375 9.676C114.767 11.2973 114.134 13.4 113.475 15.984L110.663 26.548Z" fill="#021B1C"/>
</svg>
