<svg width="752" height="61" viewBox="0 0 752 61" fill="none" xmlns="http://www.w3.org/2000/svg">
<path d="M0.86 56.96C2.532 56.96 3.9 56.8333 4.964 56.58C6.07867 56.3267 6.99067 55.8707 7.7 55.212C8.46 54.5027 9.09333 53.5907 9.6 52.476C10.1067 51.3107 10.588 49.816 11.044 47.992L19.86 14.476C20.2147 13.1587 20.468 12.0187 20.62 11.056C20.8227 10.0933 20.924 9.25733 20.924 8.548C20.924 6.876 20.3413 5.78666 19.176 5.28C18.0107 4.77333 16.06 4.52 13.324 4.52L14.16 1.48H55.656V16.832H52.768C52.1093 14.4 51.3747 12.424 50.564 10.904C49.7533 9.33333 48.816 8.11733 47.752 7.256C46.7387 6.344 45.5733 5.71066 44.256 5.356C42.9893 5.00133 41.5707 4.824 40 4.824H30.12L24.192 27.396H28.98C30.348 27.396 31.5133 27.2693 32.476 27.016C33.4387 26.7627 34.3 26.332 35.06 25.724C35.8707 25.0653 36.6053 24.1787 37.264 23.064C37.9733 21.9493 38.7333 20.5053 39.544 18.732H42.356L37.796 41.228H34.756C34.908 39.708 34.984 38.3907 34.984 37.276C34.984 34.996 34.5533 33.3493 33.692 32.336C32.8307 31.272 31.2347 30.74 28.904 30.74H23.204L18.872 47.08C18.416 48.752 18.188 50.1707 18.188 51.336C18.188 53.16 18.9987 54.528 20.62 55.44C22.2413 56.3013 25.028 56.732 28.98 56.732C31.868 56.732 34.376 56.504 36.504 56.048C38.6827 55.592 40.5573 54.8827 42.128 53.92C43.7493 52.9067 45.1427 51.5893 46.308 49.968C47.524 48.3467 48.664 46.3453 49.728 43.964H53.3L47.372 60H0.024L0.86 56.96ZM55.1938 56.96C56.8658 56.96 58.2338 56.8333 59.2978 56.58C60.4125 56.3267 61.3245 55.8707 62.0338 55.212C62.7938 54.5027 63.4271 53.5907 63.9338 52.476C64.4405 51.3107 64.9218 49.816 65.3778 47.992L73.9658 14.4C74.3205 12.9813 74.5991 11.7653 74.8018 10.752C75.0045 9.73866 75.1058 8.87733 75.1058 8.168C75.1058 6.8 74.6498 5.86266 73.7378 5.356C72.8765 4.79866 71.3818 4.52 69.2538 4.52H67.5818L68.4178 1.48H93.1178L92.2818 4.52C90.6098 4.52 89.2165 4.69733 88.1018 5.052C86.9871 5.356 86.0245 5.964 85.2138 6.876C84.4031 7.788 83.6685 9.05466 83.0098 10.676C82.4018 12.2973 81.7685 14.4 81.1098 16.984L73.2058 47.08C72.7498 48.752 72.5218 50.1707 72.5218 51.336C72.5218 53.16 73.1298 54.528 74.3458 55.44C75.6125 56.3013 77.8418 56.732 81.0338 56.732C84.0738 56.732 86.6831 56.4787 88.8618 55.972C91.0911 55.4653 93.0418 54.6547 94.7138 53.54C96.3858 52.3747 97.8298 50.9053 99.0458 49.132C100.312 47.308 101.478 45.0787 102.542 42.444H106.114L99.4258 60H54.3578L55.1938 56.96ZM106.557 56.96C108.229 56.96 109.597 56.8333 110.661 56.58C111.776 56.3267 112.688 55.8707 113.397 55.212C114.157 54.5027 114.79 53.5907 115.297 52.476C115.804 51.3107 116.285 49.816 116.741 47.992L125.329 14.4C125.684 12.9813 125.962 11.7653 126.165 10.752C126.368 9.73866 126.469 8.87733 126.469 8.168C126.469 6.8 126.013 5.86266 125.101 5.356C124.24 4.79866 122.745 4.52 120.617 4.52H118.945L119.781 1.48H144.481L143.645 4.52C141.973 4.52 140.58 4.69733 139.465 5.052C138.35 5.356 137.388 5.964 136.577 6.876C135.766 7.788 135.032 9.05466 134.373 10.676C133.765 12.2973 133.132 14.4 132.473 16.984L124.569 47.08C124.113 48.752 123.885 50.1707 123.885 51.336C123.885 53.16 124.493 54.528 125.709 55.44C126.976 56.3013 129.205 56.732 132.397 56.732C135.437 56.732 138.046 56.4787 140.225 55.972C142.454 55.4653 144.405 54.6547 146.077 53.54C147.749 52.3747 149.193 50.9053 150.409 49.132C151.676 47.308 152.841 45.0787 153.905 42.444H157.477L150.789 60H105.721L106.557 56.96ZM157.844 56.96C159.516 56.96 160.884 56.8333 161.948 56.58C163.063 56.3267 163.975 55.8707 164.684 55.212C165.444 54.5027 166.078 53.5907 166.584 52.476C167.091 51.3107 167.572 49.816 168.028 47.992L176.844 14.476C177.199 13.1587 177.452 12.0187 177.604 11.056C177.807 10.0933 177.908 9.25733 177.908 8.548C177.908 6.876 177.326 5.78666 176.16 5.28C174.995 4.77333 173.044 4.52 170.308 4.52L171.144 1.48H212.64V16.832H209.752C209.094 14.4 208.359 12.424 207.548 10.904C206.738 9.33333 205.8 8.11733 204.736 7.256C203.723 6.344 202.558 5.71066 201.24 5.356C199.974 5.00133 198.555 4.824 196.984 4.824H187.104L181.176 27.396H185.964C187.332 27.396 188.498 27.2693 189.46 27.016C190.423 26.7627 191.284 26.332 192.044 25.724C192.855 25.0653 193.59 24.1787 194.248 23.064C194.958 21.9493 195.718 20.5053 196.528 18.732H199.34L194.78 41.228H191.74C191.892 39.708 191.968 38.3907 191.968 37.276C191.968 34.996 191.538 33.3493 190.676 32.336C189.815 31.272 188.219 30.74 185.888 30.74H180.188L175.856 47.08C175.4 48.752 175.172 50.1707 175.172 51.336C175.172 53.16 175.983 54.528 177.604 55.44C179.226 56.3013 182.012 56.732 185.964 56.732C188.852 56.732 191.36 56.504 193.488 56.048C195.667 55.592 197.542 54.8827 199.112 53.92C200.734 52.9067 202.127 51.5893 203.292 49.968C204.508 48.3467 205.648 46.3453 206.712 43.964H210.284L204.356 60H157.008L157.844 56.96ZM257.322 60L237.41 14.248H237.106L228.442 47.232C228.138 48.448 227.986 49.5373 227.986 50.5C227.986 52.628 228.62 54.224 229.886 55.288C231.153 56.352 232.926 56.9093 235.206 56.96L234.294 60H212.558L213.394 56.96C215.776 56.96 217.904 56.124 219.778 54.452C221.653 52.7293 222.945 50.576 223.654 47.992L232.622 14.248C232.825 13.488 232.926 12.7027 232.926 11.892C232.926 9.46 231.888 7.636 229.81 6.42C227.784 5.204 225.098 4.57066 221.754 4.52L222.666 1.48H240.526L259.526 45.028H259.83L267.886 14.248C268.14 13.1333 268.266 12.196 268.266 11.436C268.266 9.25733 267.633 7.58533 266.366 6.42C265.15 5.204 263.656 4.57066 261.882 4.52L262.794 1.48H282.25L281.414 4.52C280.452 4.52 279.514 4.748 278.602 5.204C277.69 5.66 276.854 6.29333 276.094 7.104C275.334 7.864 274.65 8.80133 274.042 9.916C273.485 11.0307 273.029 12.2213 272.674 13.488L260.362 60H257.322ZM316.264 27.548L331.996 16.3C335.188 14.02 337.519 12.0947 338.988 10.524C340.458 8.90266 341.192 7.61066 341.192 6.648C341.192 5.22933 339.495 4.52 336.1 4.52L336.86 1.48H358.444L357.684 4.52C356.874 4.52 356.038 4.69733 355.176 5.052C354.315 5.40666 353.124 6.06533 351.604 7.028C350.135 7.99066 348.184 9.35866 345.752 11.132C343.32 12.9053 340.103 15.1853 336.1 17.972L324.396 26.18L339.292 45.788C341.319 48.4733 342.94 50.576 344.156 52.096C345.423 53.616 346.487 54.7307 347.348 55.44C348.26 56.1493 349.096 56.58 349.856 56.732C350.616 56.884 351.503 56.96 352.516 56.96L351.68 60H327.816L328.652 56.96C330.426 56.96 331.794 56.8333 332.756 56.58C333.77 56.276 334.276 55.6933 334.276 54.832C334.276 54.1227 333.922 53.1347 333.212 51.868C332.503 50.5507 331.414 48.8787 329.944 46.852L317.936 30.74L314.896 32.868L311.096 47.232C310.488 49.4613 310.184 51.2347 310.184 52.552C310.184 54.2747 310.767 55.44 311.932 56.048C313.148 56.656 315.15 56.96 317.936 56.96L316.948 60H292.704L293.54 56.96C294.959 56.96 296.15 56.8587 297.112 56.656C298.075 56.4027 298.911 55.9467 299.62 55.288C300.38 54.6293 301.014 53.7173 301.52 52.552C302.027 51.3867 302.534 49.8667 303.04 47.992L311.932 14.4C312.692 11.6133 313.072 9.536 313.072 8.168C313.072 6.59733 312.49 5.60933 311.324 5.204C310.21 4.748 308.284 4.52 305.548 4.52L306.384 1.48H331.084L330.248 4.52C328.576 4.52 327.183 4.69733 326.068 5.052C324.954 5.356 323.991 5.964 323.18 6.876C322.37 7.788 321.635 9.05466 320.976 10.676C320.368 12.2973 319.735 14.4 319.076 16.984L316.264 27.548ZM379.674 56.656C381.802 56.656 383.752 56.3773 385.526 55.82C387.35 55.212 388.92 54.3507 390.238 53.236C391.606 52.0707 392.644 50.652 393.354 48.98C394.114 47.308 394.494 45.3573 394.494 43.128C394.494 41.1013 394.038 39.6067 393.126 38.644C392.264 37.6813 390.567 37.2 388.034 37.2L388.718 34.236H409.542L408.782 37.2C407.718 37.2 406.806 37.276 406.046 37.428C405.336 37.58 404.703 38.0107 404.146 38.72C403.588 39.3787 403.056 40.392 402.55 41.76C402.043 43.128 401.486 45.0027 400.878 47.384C400.472 48.8533 400.092 50.348 399.738 51.868C399.383 53.3373 399.18 54.8067 399.13 56.276C397.964 56.4787 396.723 56.8333 395.406 57.34C394.139 57.796 392.67 58.2773 390.998 58.784C389.376 59.2907 387.502 59.7467 385.374 60.152C383.246 60.5573 380.788 60.76 378.002 60.76C374.556 60.76 371.466 60.228 368.73 59.164C365.994 58.0493 363.663 56.4787 361.738 54.452C359.863 52.3747 358.394 49.892 357.33 47.004C356.316 44.0653 355.81 40.772 355.81 37.124C355.81 32.3107 356.722 27.7253 358.546 23.368C360.42 18.96 362.903 15.084 365.994 11.74C369.135 8.396 372.732 5.736 376.786 3.76C380.89 1.73333 385.171 0.719998 389.63 0.719998C392.366 0.719998 394.95 1.1 397.382 1.86C399.864 2.56933 402.347 3.70933 404.83 5.28L407.642 1.48H410.454L407.718 18.2H404.83C404.323 13.5387 402.904 10.1187 400.574 7.94C398.294 5.76133 394.848 4.672 390.238 4.672C386.691 4.672 383.372 5.508 380.282 7.18C377.242 8.852 374.582 11.1573 372.302 14.096C370.022 17.0347 368.223 20.48 366.906 24.432C365.639 28.384 365.006 32.64 365.006 37.2C365.006 50.1707 369.895 56.656 379.674 56.656ZM451.591 47.384C450.983 50.0693 450.679 52.02 450.679 53.236C450.679 54.7053 451.16 55.6933 452.123 56.2C453.086 56.7067 454.96 56.96 457.747 56.96L456.987 60H434.491L435.251 56.96C436.72 56.96 437.936 56.8587 438.899 56.656C439.862 56.4027 440.647 55.9467 441.255 55.288C441.914 54.5787 442.471 53.5907 442.927 52.324C443.383 51.0573 443.839 49.3853 444.295 47.308L446.347 37.96H430.007L425.219 42.976C423.142 45.1547 421.495 46.928 420.279 48.296C419.114 49.6133 418.227 50.6773 417.619 51.488C417.011 52.2987 416.631 52.9067 416.479 53.312C416.327 53.7173 416.251 54.072 416.251 54.376C416.251 55.3387 416.656 56.0227 417.467 56.428C418.328 56.7827 419.823 56.96 421.951 56.96L421.191 60H401.507L402.267 56.96C403.483 56.96 404.699 56.732 405.915 56.276C407.08 55.7693 408.372 54.9587 409.791 53.844C411.26 52.7293 412.856 51.26 414.579 49.436C416.352 47.5613 418.404 45.2307 420.735 42.444L455.771 0.719998H462.155L451.591 47.384ZM447.031 34.16L453.263 10.6H452.959L433.275 34.16H447.031ZM509.76 60L489.848 14.248H489.544L480.88 47.232C480.576 48.448 480.424 49.5373 480.424 50.5C480.424 52.628 481.057 54.224 482.324 55.288C483.59 56.352 485.364 56.9093 487.644 56.96L486.732 60H464.996L465.832 56.96C468.213 56.96 470.341 56.124 472.216 54.452C474.09 52.7293 475.382 50.576 476.092 47.992L485.06 14.248C485.262 13.488 485.364 12.7027 485.364 11.892C485.364 9.46 484.325 7.636 482.248 6.42C480.221 5.204 477.536 4.57066 474.192 4.52L475.104 1.48H492.964L511.964 45.028H512.268L520.324 14.248C520.577 13.1333 520.704 12.196 520.704 11.436C520.704 9.25733 520.07 7.58533 518.804 6.42C517.588 5.204 516.093 4.57066 514.32 4.52L515.232 1.48H534.688L533.852 4.52C532.889 4.52 531.952 4.748 531.04 5.204C530.128 5.66 529.292 6.29333 528.532 7.104C527.772 7.864 527.088 8.80133 526.48 9.916C525.922 11.0307 525.466 12.2213 525.112 13.488L512.8 60H509.76ZM569.532 47.384C568.924 50.0693 568.62 52.02 568.62 53.236C568.62 54.7053 569.102 55.6933 570.064 56.2C571.027 56.7067 572.902 56.96 575.688 56.96L574.928 60H552.432L553.192 56.96C554.662 56.96 555.878 56.8587 556.84 56.656C557.803 56.4027 558.588 55.9467 559.196 55.288C559.855 54.5787 560.412 53.5907 560.868 52.324C561.324 51.0573 561.78 49.3853 562.236 47.308L564.288 37.96H547.948L543.16 42.976C541.083 45.1547 539.436 46.928 538.22 48.296C537.055 49.6133 536.168 50.6773 535.56 51.488C534.952 52.2987 534.572 52.9067 534.42 53.312C534.268 53.7173 534.192 54.072 534.192 54.376C534.192 55.3387 534.598 56.0227 535.408 56.428C536.27 56.7827 537.764 56.96 539.892 56.96L539.132 60H519.448L520.208 56.96C521.424 56.96 522.64 56.732 523.856 56.276C525.022 55.7693 526.314 54.9587 527.732 53.844C529.202 52.7293 530.798 51.26 532.52 49.436C534.294 47.5613 536.346 45.2307 538.676 42.444L573.712 0.719998H580.096L569.532 47.384ZM564.972 34.16L571.204 10.6H570.9L551.216 34.16H564.972ZM605.737 27.548L621.469 16.3C624.661 14.02 626.992 12.0947 628.461 10.524C629.93 8.90266 630.665 7.61066 630.665 6.648C630.665 5.22933 628.968 4.52 625.573 4.52L626.333 1.48H647.917L647.157 4.52C646.346 4.52 645.51 4.69733 644.649 5.052C643.788 5.40666 642.597 6.06533 641.077 7.028C639.608 7.99066 637.657 9.35866 635.225 11.132C632.793 12.9053 629.576 15.1853 625.573 17.972L613.869 26.18L628.765 45.788C630.792 48.4733 632.413 50.576 633.629 52.096C634.896 53.616 635.96 54.7307 636.821 55.44C637.733 56.1493 638.569 56.58 639.329 56.732C640.089 56.884 640.976 56.96 641.989 56.96L641.153 60H617.289L618.125 56.96C619.898 56.96 621.266 56.8333 622.229 56.58C623.242 56.276 623.749 55.6933 623.749 54.832C623.749 54.1227 623.394 53.1347 622.685 51.868C621.976 50.5507 620.886 48.8787 619.417 46.852L607.409 30.74L604.369 32.868L600.569 47.232C599.961 49.4613 599.657 51.2347 599.657 52.552C599.657 54.2747 600.24 55.44 601.405 56.048C602.621 56.656 604.622 56.96 607.409 56.96L606.421 60H582.177L583.013 56.96C584.432 56.96 585.622 56.8587 586.585 56.656C587.548 56.4027 588.384 55.9467 589.093 55.288C589.853 54.6293 590.486 53.7173 590.993 52.552C591.5 51.3867 592.006 49.8667 592.513 47.992L601.405 14.4C602.165 11.6133 602.545 9.536 602.545 8.168C602.545 6.59733 601.962 5.60933 600.797 5.204C599.682 4.748 597.757 4.52 595.021 4.52L595.857 1.48H620.557L619.721 4.52C618.049 4.52 616.656 4.69733 615.541 5.052C614.426 5.356 613.464 5.964 612.653 6.876C611.842 7.788 611.108 9.05466 610.449 10.676C609.841 12.2973 609.208 14.4 608.549 16.984L605.737 27.548ZM669.146 56.656C671.274 56.656 673.225 56.3773 674.998 55.82C676.822 55.212 678.393 54.3507 679.71 53.236C681.078 52.0707 682.117 50.652 682.826 48.98C683.586 47.308 683.966 45.3573 683.966 43.128C683.966 41.1013 683.51 39.6067 682.598 38.644C681.737 37.6813 680.04 37.2 677.506 37.2L678.19 34.236H699.014L698.254 37.2C697.19 37.2 696.278 37.276 695.518 37.428C694.809 37.58 694.176 38.0107 693.618 38.72C693.061 39.3787 692.529 40.392 692.022 41.76C691.516 43.128 690.958 45.0027 690.35 47.384C689.945 48.8533 689.565 50.348 689.21 51.868C688.856 53.3373 688.653 54.8067 688.602 56.276C687.437 56.4787 686.196 56.8333 684.878 57.34C683.612 57.796 682.142 58.2773 680.47 58.784C678.849 59.2907 676.974 59.7467 674.846 60.152C672.718 60.5573 670.261 60.76 667.474 60.76C664.029 60.76 660.938 60.228 658.202 59.164C655.466 58.0493 653.136 56.4787 651.21 54.452C649.336 52.3747 647.866 49.892 646.802 47.004C645.789 44.0653 645.282 40.772 645.282 37.124C645.282 32.3107 646.194 27.7253 648.018 23.368C649.893 18.96 652.376 15.084 655.466 11.74C658.608 8.396 662.205 5.736 666.258 3.76C670.362 1.73333 674.644 0.719998 679.102 0.719998C681.838 0.719998 684.422 1.1 686.854 1.86C689.337 2.56933 691.82 3.70933 694.302 5.28L697.114 1.48H699.926L697.19 18.2H694.302C693.796 13.5387 692.377 10.1187 690.046 7.94C687.766 5.76133 684.321 4.672 679.71 4.672C676.164 4.672 672.845 5.508 669.754 7.18C666.714 8.852 664.054 11.1573 661.774 14.096C659.494 17.0347 657.696 20.48 656.378 24.432C655.112 28.384 654.478 32.64 654.478 37.2C654.478 50.1707 659.368 56.656 669.146 56.656ZM741.063 47.384C740.456 50.0693 740.152 52.02 740.152 53.236C740.152 54.7053 740.633 55.6933 741.596 56.2C742.558 56.7067 744.433 56.96 747.22 56.96L746.46 60H723.964L724.724 56.96C726.193 56.96 727.409 56.8587 728.372 56.656C729.334 56.4027 730.12 55.9467 730.728 55.288C731.386 54.5787 731.944 53.5907 732.4 52.324C732.856 51.0573 733.312 49.3853 733.768 47.308L735.82 37.96H719.48L714.692 42.976C712.614 45.1547 710.968 46.928 709.752 48.296C708.586 49.6133 707.7 50.6773 707.092 51.488C706.484 52.2987 706.104 52.9067 705.952 53.312C705.8 53.7173 705.724 54.072 705.724 54.376C705.724 55.3387 706.129 56.0227 706.94 56.428C707.801 56.7827 709.296 56.96 711.424 56.96L710.664 60H690.979L691.739 56.96C692.955 56.96 694.171 56.732 695.387 56.276C696.553 55.7693 697.845 54.9587 699.264 53.844C700.733 52.7293 702.329 51.26 704.052 49.436C705.825 47.5613 707.877 45.2307 710.208 42.444L745.244 0.719998H751.628L741.063 47.384ZM736.504 34.16L742.736 10.6H742.432L722.748 34.16H736.504Z" fill="#080808"/>
</svg>
